# xmcd
#
# Track frame offsets:
# 150
# 14213
# 27375
# 40938
# 53188
# 69613
# 85363
# 101863
# 119713
# 132763
# 149938
# 164188
# 181513
#
# Disc length: 2611 seconds
#
#
# Revision: 0
# Processed by: cddbd v1.5.1PL0 Copyright (c) Steve Scherf et al.
# Submitted via: FreeRIP 2.941 
#
DISCID=cd0a310d
DTITLE=Various Artist - 三把靚聲 民歌．小調 新曲+精選 Disc 2
DYEAR=2005
DGENRE=Country
TTITLE0=鼓浪嶼(區瑞強)
TTITLE1=雲外千峰(區瑞強)
TTITLE2=午夜結他(區瑞強 張德蘭)
TTITLE3=高山青(張德蘭)
TTITLE4=平湖秋月(張德蘭)
TTITLE5=痴情淚(張德蘭)
TTITLE6=在水中央(區瑞強)
TTITLE7=舊夢不須記/順流逆流(區瑞強)
TTITLE8=花非花(純音樂)
TTITLE9=忘不了的你(張德蘭)
TTITLE10=幾度夕陽紅(張德蘭)
TTITLE11=秋夜(張德蘭)
TTITLE12=銀色的月光下(純音樂)
EXTD=
EXTT0=
EXTT1=
EXTT2=
EXTT3=
EXTT4=
EXTT5=
EXTT6=
EXTT7=
EXTT8=
EXTT9=
EXTT10=
EXTT11=
EXTT12=
PLAYORDER=
